<svg width="104" height="41" viewBox="0 0 104 41" fill="none" xmlns="http://www.w3.org/2000/svg">
<g filter="url(#filter0_d_457_776)">
<path d="M16.2751 0.96167H17.1216C20.0603 1.02633 22.9511 2.2217 25.0274 4.33779C24.2608 5.12933 23.4782 5.88851 22.7275 6.68006C21.5616 5.61392 20.1562 4.79008 18.6229 4.49931C16.355 4.01472 13.9114 4.45084 12.0108 5.75935C9.93449 7.13236 8.52905 9.45852 8.22564 11.9461C7.89022 14.4015 8.57698 16.986 10.1581 18.8922C11.6754 20.7499 13.9913 21.9129 16.387 21.9936C18.6229 22.1229 20.9547 21.4283 22.5838 19.8453C23.8615 18.7307 24.4524 17.0345 24.6441 15.3868C21.9928 15.3868 19.3416 15.403 16.6904 15.3868V12.0592H27.8543C28.4293 15.6291 27.5987 19.6514 24.9156 22.2036C23.1269 24.0128 20.6513 25.079 18.1278 25.289C15.6842 25.5313 13.1607 25.0629 10.9887 23.8675C8.38534 22.4621 6.30907 20.0876 5.28689 17.293C4.32864 14.7245 4.31264 11.8169 5.20704 9.23233C6.02158 6.87388 7.58673 4.79009 9.59915 3.33631C11.5316 1.89864 13.8794 1.10709 16.2751 0.96167Z" fill="#747873"/>
<path d="M80.3198 1.80179H83.7377V24.8691C82.6044 24.8691 81.4539 24.8853 80.3198 24.853C80.3361 17.18 80.3198 9.49091 80.3198 1.80179Z" fill="#747873"/>
<path d="M35.4568 9.79786C37.565 9.39403 39.8489 9.84633 41.5897 11.1225C43.1709 12.2532 44.2729 14.0301 44.6083 15.9685C45.0395 18.2139 44.4965 20.6692 43.0591 22.4461C41.5099 24.433 38.9705 25.4992 36.4949 25.3376C34.2269 25.2084 32.023 24.0615 30.6814 22.1876C29.1641 20.12 28.7967 17.277 29.6273 14.8539C30.4577 12.2532 32.8055 10.2663 35.4568 9.79786ZM35.9359 12.867C35.0735 13.0932 34.2749 13.5939 33.6999 14.3047C32.1507 16.1785 32.2465 19.2315 33.9555 20.9762C34.9297 21.9776 36.3991 22.4461 37.7567 22.1715C39.0183 21.9453 40.1204 21.0892 40.7273 19.9584C41.7814 18.0362 41.478 15.387 39.8649 13.8847C38.8267 12.9155 37.3095 12.5117 35.9359 12.867Z" fill="#747873"/>
<path d="M52.3863 9.79772C54.798 9.32924 57.4332 10.0077 59.2376 11.72C62.177 14.3853 62.4963 19.3768 59.9888 22.446C58.4717 24.3844 56.0118 25.4506 53.5842 25.3375C51.2683 25.2728 48.9844 24.1098 47.6109 22.1875C46.0617 20.0714 45.7263 17.1638 46.6047 14.6923C47.4831 12.1723 49.783 10.25 52.3863 9.79772ZM52.8655 12.8669C52.003 13.0931 51.2044 13.5938 50.6295 14.2884C49.0962 16.1299 49.1601 19.1345 50.8051 20.8953C51.7794 21.9452 53.2967 22.4622 54.7021 22.1714C55.9479 21.9291 57.0657 21.0891 57.6732 19.9584C58.711 18.0199 58.4073 15.3707 56.7783 13.8684C55.7403 12.8992 54.223 12.5115 52.8655 12.8669Z" fill="#747873"/>
<path d="M66.7444 10.7345C68.5815 9.57143 71.0245 9.24836 73.0053 10.2498C73.6283 10.5245 74.1394 10.9929 74.6342 11.4614C74.6505 11.0253 74.6342 10.573 74.6505 10.1207C75.7202 10.1368 76.7906 10.1207 77.8765 10.1368V24.3842C77.8602 26.5327 77.3172 28.8103 75.7838 30.3772C74.1075 32.1056 71.5356 32.6387 69.22 32.2834C66.7444 31.9118 64.588 30.0864 63.6302 27.7765C64.588 27.3081 65.5947 26.9365 66.5843 26.5004C67.1436 27.8249 68.2777 28.9557 69.6993 29.2142C71.1208 29.4726 72.7652 29.1173 73.692 27.9219C74.6824 26.6942 74.6824 25.0142 74.6342 23.512C73.8994 24.2389 73.0534 24.885 72.0312 25.1273C69.8111 25.7573 67.3673 24.982 65.6584 23.4635C63.9332 21.9451 62.9109 19.6028 63.0072 17.2767C63.0554 14.6436 64.5243 12.1075 66.7444 10.7345ZM70.0504 12.8021C69.0763 12.9636 68.1659 13.5129 67.5429 14.2721C66.0414 16.0813 66.0414 18.9728 67.5592 20.7497C68.4214 21.7997 69.8111 22.3812 71.1526 22.2359C72.4141 22.1066 73.5801 21.2989 74.2031 20.1844C75.2572 18.2944 75.0816 15.7259 73.6601 14.0783C72.7816 13.0606 71.3764 12.5598 70.0504 12.8021Z" fill="#747873"/>
<path d="M87.8424 11.5584C89.7595 9.74921 92.7136 9.13538 95.1737 10.0885C97.5056 10.9769 98.9909 13.2222 99.7412 15.5322C96.2752 16.986 92.8255 18.4237 89.3602 19.8775C89.8387 20.7983 90.5736 21.6383 91.564 21.9775C92.9537 22.4782 94.6144 22.3005 95.7804 21.3636C96.2434 21.0083 96.6108 20.5398 96.9619 20.0875C97.8404 20.6852 98.719 21.2667 99.5975 21.8644C98.3516 23.7544 96.2597 25.079 94.0078 25.289C91.5158 25.5959 88.8646 24.6267 87.252 22.6559C84.6008 19.5544 84.8564 14.353 87.8424 11.5584ZM89.5513 14.5468C89.0084 15.3384 88.7846 16.3075 88.8009 17.2606C91.1166 16.2914 93.4329 15.3222 95.7485 14.3368C95.3648 13.4322 94.4389 12.883 93.4966 12.7376C91.9796 12.463 90.398 13.2869 89.5513 14.5468Z" fill="#747873"/>
</g>
<defs>
<filter id="filter0_d_457_776" x="0.551758" y="0.96167" width="103.189" height="39.426" filterUnits="userSpaceOnUse" color-interpolation-filters="sRGB">
<feFlood flood-opacity="0" result="BackgroundImageFix"/>
<feColorMatrix in="SourceAlpha" type="matrix" values="0 0 0 0 0 0 0 0 0 0 0 0 0 0 0 0 0 0 127 0" result="hardAlpha"/>
<feOffset dy="4"/>
<feGaussianBlur stdDeviation="2"/>
<feComposite in2="hardAlpha" operator="out"/>
<feColorMatrix type="matrix" values="0 0 0 0 0 0 0 0 0 0 0 0 0 0 0 0 0 0 0.25 0"/>
<feBlend mode="normal" in2="BackgroundImageFix" result="effect1_dropShadow_457_776"/>
<feBlend mode="normal" in="SourceGraphic" in2="effect1_dropShadow_457_776" result="shape"/>
</filter>
</defs>
</svg>
