<svg width="17" height="15" viewBox="0 0 17 15" fill="none" xmlns="http://www.w3.org/2000/svg">
<path d="M15.2225 1.51822C14.379 0.602725 13.2215 0.0985107 11.9631 0.0985107C11.0224 0.0985107 10.161 0.396088 9.4026 0.982907C9.01993 1.27912 8.67319 1.64151 8.36747 2.06449C8.06188 1.64163 7.71502 1.27912 7.33222 0.982907C6.57397 0.396088 5.71252 0.0985107 4.77188 0.0985107C3.51346 0.0985107 2.35587 0.602725 1.51233 1.51822C0.678858 2.42302 0.219727 3.65911 0.219727 4.99896C0.219727 6.37799 0.733312 7.64033 1.83595 8.97171C2.82234 10.1626 4.24002 11.3716 5.88173 12.7715C6.44231 13.2496 7.07773 13.7915 7.73752 14.3688C7.91182 14.5216 8.13548 14.6057 8.36747 14.6057C8.59934 14.6057 8.82312 14.5216 8.99718 14.369C9.65697 13.7917 10.2928 13.2495 10.8536 12.7712C12.4951 11.3715 13.9127 10.1626 14.8991 8.97159C16.0018 7.64033 16.5152 6.37799 16.5152 4.99883C16.5152 3.65911 16.0561 2.42302 15.2225 1.51822Z" fill="#FF6726"/>
</svg>
