<svg width="93" height="23" viewBox="0 0 93 23" fill="none" xmlns="http://www.w3.org/2000/svg">
<circle cx="11.7401" cy="11.5521" r="10.8896" fill="white"/>
<path d="M7.79685 12.1906H9.13719V17.9216C9.13719 18.0348 9.22546 18.1265 9.33441 18.1265H11.607C11.716 18.1265 11.8042 18.0348 11.8042 17.9216V12.2176H13.3451C13.4453 12.2176 13.5296 12.1395 13.541 12.0362L13.775 9.92633C13.7815 9.86828 13.7638 9.81014 13.7264 9.76659C13.6889 9.72301 13.6354 9.69805 13.5791 9.69805H11.8043V8.37547C11.8043 7.9768 12.011 7.77462 12.4187 7.77462C12.4768 7.77462 13.5791 7.77462 13.5791 7.77462C13.6881 7.77462 13.7764 7.68289 13.7764 7.56979V5.6331C13.7764 5.51995 13.6881 5.42827 13.5791 5.42827H11.9799C11.9686 5.4277 11.9436 5.42676 11.9066 5.42676C11.6291 5.42676 10.6646 5.48334 9.90271 6.21131C9.05852 7.01804 9.17588 7.98394 9.20392 8.15142V9.698H7.79683C7.68788 9.698 7.59961 9.78968 7.59961 9.90284V11.9858C7.59963 12.0989 7.6879 12.1906 7.79685 12.1906Z" fill="#192023"/>
<circle cx="47.1313" cy="11.5521" r="10.8896" fill="white"/>
<path d="M51.691 7.88399C51.2775 8.06985 50.8369 8.19304 50.3776 8.25286C50.8501 7.96375 51.2108 7.50943 51.3803 6.96184C50.9398 7.23101 50.4534 7.42113 49.935 7.52724C49.5166 7.07079 48.9204 6.78809 48.27 6.78809C47.0081 6.78809 45.9922 7.83771 45.9922 9.12446C45.9922 9.3096 46.0075 9.48762 46.045 9.6571C44.15 9.56239 42.4733 8.63169 41.3469 7.21392C41.1502 7.56355 41.0349 7.96375 41.0349 8.39456C41.0349 9.2035 41.4414 9.92057 42.0473 10.3357C41.6811 10.3286 41.3218 10.2197 41.0175 10.048C41.0175 10.0552 41.0175 10.0644 41.0175 10.0737C41.0175 11.2087 41.8076 12.1516 42.8436 12.3687C42.6581 12.4207 42.4559 12.4456 42.246 12.4456C42.1001 12.4456 41.9528 12.4371 41.8145 12.4058C42.1098 13.3308 42.9479 14.0108 43.9443 14.0329C43.1689 14.6546 42.1842 15.0291 41.1182 15.0291C40.9313 15.0291 40.752 15.0206 40.5728 14.9971C41.5824 15.6643 42.779 16.0453 44.0694 16.0453C48.2638 16.0453 50.5569 12.4848 50.5569 9.39861C50.5569 9.29536 50.5534 9.19567 50.5486 9.09669C51.0009 8.7677 51.381 8.35682 51.691 7.88399Z" fill="#192023"/>
<circle cx="81.5224" cy="11.5521" r="10.8896" fill="white"/>
<path d="M86.304 9.32916C86.298 8.87084 86.2132 8.41708 86.0533 7.98818C85.9148 7.6264 85.7031 7.29784 85.4318 7.02349C85.1606 6.74914 84.8357 6.53504 84.478 6.39486C84.0594 6.23593 83.6172 6.14999 83.1701 6.1407C82.5945 6.11468 82.4121 6.10742 80.951 6.10742C79.4899 6.10742 79.3027 6.10742 78.7313 6.1407C78.2844 6.15006 77.8424 6.23599 77.424 6.39486C77.0662 6.53494 76.7413 6.74901 76.4701 7.02337C76.1988 7.29773 75.9871 7.62634 75.8486 7.98818C75.6912 8.41125 75.6064 8.85843 75.598 9.3104C75.5722 9.89314 75.5645 10.0777 75.5645 11.5554C75.5645 13.0332 75.5645 13.222 75.598 13.8005C75.6069 14.2531 75.6913 14.6997 75.8486 15.1239C75.9874 15.4857 76.1992 15.8141 76.4705 16.0884C76.7419 16.3626 77.0668 16.5766 77.4246 16.7166C77.8419 16.882 78.284 16.9741 78.7319 16.9889C79.3081 17.015 79.4905 17.0228 80.9516 17.0228C82.4127 17.0228 82.5999 17.0228 83.1713 16.9889C83.6183 16.98 84.0606 16.8943 84.4792 16.7354C84.8368 16.5951 85.1616 16.3809 85.4328 16.1066C85.704 15.8322 85.9158 15.5038 86.0545 15.1421C86.2119 14.7185 86.2963 14.2719 86.3052 13.8186C86.331 13.2365 86.3387 13.0519 86.3387 11.5736C86.3375 10.0959 86.3375 9.90827 86.304 9.32916ZM80.9474 14.35C79.4193 14.35 78.1814 13.0979 78.1814 11.5524C78.1814 10.0069 79.4193 8.75488 80.9474 8.75488C81.681 8.75488 82.3845 9.04962 82.9032 9.57426C83.422 10.0989 83.7134 10.8105 83.7134 11.5524C83.7134 12.2944 83.422 13.0059 82.9032 13.5306C82.3845 14.0552 81.681 14.35 80.9474 14.35ZM83.8235 9.30374C83.7387 9.30382 83.6548 9.287 83.5766 9.25425C83.4983 9.22149 83.4271 9.17345 83.3672 9.11285C83.3073 9.05226 83.2598 8.98032 83.2274 8.90114C83.195 8.82196 83.1784 8.7371 83.1785 8.65141C83.1785 8.56578 83.1952 8.48099 83.2276 8.40189C83.26 8.32278 83.3074 8.2509 83.3673 8.19035C83.4272 8.1298 83.4982 8.08178 83.5765 8.04901C83.6547 8.01624 83.7385 7.99937 83.8232 7.99937C83.9078 7.99937 83.9917 8.01624 84.0699 8.04901C84.1481 8.08178 84.2192 8.1298 84.279 8.19035C84.3389 8.2509 84.3864 8.32278 84.4188 8.40189C84.4512 8.48099 84.4678 8.56578 84.4678 8.65141C84.4678 9.01207 84.1795 9.30374 83.8235 9.30374Z" fill="#192023"/>
<path d="M80.9476 13.3698C81.9399 13.3698 82.7443 12.5562 82.7443 11.5526C82.7443 10.5489 81.9399 9.73535 80.9476 9.73535C79.9553 9.73535 79.1509 10.5489 79.1509 11.5526C79.1509 12.5562 79.9553 13.3698 80.9476 13.3698Z" fill="#192023"/>
</svg>
