<svg width="8" height="7" viewBox="0 0 8 7" fill="none" xmlns="http://www.w3.org/2000/svg">
<path d="M6.26422 1.05787C6.38051 0.945295 6.53525 0.88306 6.6958 0.884295C6.85635 0.885531 7.01015 0.95014 7.12474 1.06449C7.23933 1.17884 7.30576 1.33398 7.31001 1.49719C7.31425 1.66039 7.25598 1.81889 7.14748 1.93924L3.85383 6.12785C3.7972 6.18988 3.72884 6.23965 3.65285 6.27421C3.57687 6.30876 3.49481 6.32738 3.41158 6.32895C3.32836 6.33051 3.24568 6.315 3.16848 6.28333C3.09129 6.25166 3.02117 6.20449 2.96232 6.14463L0.778103 3.92358C0.717276 3.86594 0.668489 3.79644 0.634651 3.71922C0.600813 3.64199 0.582618 3.55863 0.581151 3.4741C0.579684 3.38957 0.594976 3.30561 0.626114 3.22722C0.657252 3.14883 0.703598 3.07762 0.762387 3.01784C0.821177 2.95805 0.891205 2.91093 0.968295 2.87926C1.04538 2.8476 1.12796 2.83205 1.21108 2.83354C1.29421 2.83503 1.37619 2.85354 1.45214 2.88794C1.52808 2.92235 1.59643 2.97196 1.65311 3.03382L3.38166 4.79068L6.24854 1.07633C6.2537 1.06987 6.25839 1.06371 6.26422 1.05787Z" fill="#5ABA4A"/>
</svg>
